<?xml version="1.0" encoding="utf-8"?>
<!-- Generator: Adobe Illustrator 27.9.3, SVG Export Plug-In . SVG Version: 9.03 Build 53313)  -->
<svg version="1.1" id="_x32_" xmlns="http://www.w3.org/2000/svg" xmlns:xlink="http://www.w3.org/1999/xlink" x="0px" y="0px"
	 viewBox="0 0 512 512" style="enable-background:new 0 0 512 512;" xml:space="preserve">
<style type="text/css">
	.st0{fill:#828282;}
</style>
<path class="st0" d="M75.7,386.6c-12.9,12.9-12.9,33.8,0,46.7c12.9,12.9,33.8,12.9,46.7,0l24.2-24.2l-46.7-46.7L75.7,386.6z
	 M432.4,80.4l-3.8-3.8c-26.2-26.2-68.6-26.2-94.8,0l-142,141.9c-9.2,9.2-15.6,20.8-18.5,33.5l-6.6,28.7
	c-2.9,12.7-9.4,24.3-18.5,33.5l-38.7,38.7l46.7,46.7l38.7-38.7c9.2-9.2,20.8-15.6,33.5-18.5l28.7-6.6c12.7-2.9,24.3-9.4,33.5-18.5
	l141.9-141.9C458.5,149.1,458.5,106.6,432.4,80.4z M364.7,186.8l-82.1,82.1c-3.6,3.6-9.5,3.6-13.1,0l-29.3-29.3
	c-3.6-3.6-3.6-9.5,0-13.1l82.1-82.1c3.6-3.6,9.5-3.6,13.1,0l29.3,29.3C368.3,177.3,368.3,183.1,364.7,186.8z"/>
</svg>
