<?xml version="1.0" encoding="utf-8"?>
<!-- Generator: Adobe Illustrator 27.9.3, SVG Export Plug-In . SVG Version: 9.03 Build 53313)  -->
<svg version="1.1" id="_x32_" xmlns="http://www.w3.org/2000/svg" xmlns:xlink="http://www.w3.org/1999/xlink" x="0px" y="0px"
	 viewBox="0 0 512 512" style="enable-background:new 0 0 512 512;" xml:space="preserve">
<style type="text/css">
	.st0{fill:#828282;}
</style>
<path class="st0" d="M380.4,243.5c-21.9-19.9-52.6-38.9-53.8-57.6c-2.5-37.7-10.5-106-10.5-106C313.7,45.7,287.2,21,256,21
	s-57.7,24.7-60.1,58.9c0,0-8,68.3-10.5,106c-1.2,18.7-31.9,37.7-53.8,57.6c-17.3,15.8-35.4,33.6-35.4,56.7
	c0,32.1,27.6,52.9,59.7,52.9c4.4,0,26.2-5.1,41.2,13c17.5,21,41.8,28.3,58.9,28.3s41.4-7.3,58.9-28.3c15.1-18,36.9-13,41.2-13
	c32.1,0,59.7-20.8,59.7-52.9C415.8,277.1,397.7,259.3,380.4,243.5z M137.3,448.6c0,15.7,12.7,28.4,28.4,28.4s28.4-12.7,28.4-28.4
	c0-15.7-28.4-56.8-28.4-56.8S137.3,432.9,137.3,448.6z M318.2,412.5c0,11.2,9,20.2,20.2,20.2s20.2-9,20.2-20.2s-20.2-40.4-20.2-40.4
	S318.2,401.3,318.2,412.5z"/>
</svg>
