<?xml version="1.0" encoding="utf-8"?>
<!-- Generator: Adobe Illustrator 27.9.3, SVG Export Plug-In . SVG Version: 9.03 Build 53313)  -->
<svg version="1.1" id="_x32_" xmlns="http://www.w3.org/2000/svg" xmlns:xlink="http://www.w3.org/1999/xlink" x="0px" y="0px"
	 viewBox="0 0 512 512" style="enable-background:new 0 0 512 512;" xml:space="preserve">
<style type="text/css">
	.st0{fill:#828282;}
</style>
<path class="st0" d="M421.9,341.8L421.9,341.8l-28.8-61c0-1.2,0.1-2.4,0.1-3.7c0-21.2-4.3-41.4-12.1-59.8
	c-6.3-14.9-14.9-28.7-25.4-40.7l-12.9,14.8c2.9,3.4,5.6,7,8.1,10.7c14.5,21.4,22.9,47.2,22.9,75c0,1.7-0.1,3.4-0.1,5.3l-0.1,2.4
	l30.8,65.4l0,0c0.2,0.4,0.3,0.7,0.3,1.1c0,0.5-0.1,1-0.4,1.4s-0.6,0.7-1.1,1l-22.7,11l0,0c-3.8,1.8-6.9,4.7-9.1,8.1
	s-3.4,7.5-3.4,11.7v37.2c0,0.4-0.1,0.7-0.2,1c-0.2,0.5-0.5,0.9-1,1.2c-0.4,0.3-0.9,0.4-1.5,0.4h-61c-3,0-6,0.6-8.6,1.7
	c-4,1.7-7.3,4.5-9.7,8c-2.4,3.5-3.8,7.8-3.8,12.3v12.1c0,0.1,0,0.1,0,0.2s-0.1,0.2-0.2,0.2c-0.1,0.1-0.1,0.1-0.3,0.1H158.2
	c-0.1,0-0.1,0-0.2,0c-0.1,0-0.2-0.1-0.2-0.2c-0.1-0.1-0.1-0.1-0.1-0.3v-75l-3.5-2.9c-14.9-12.3-27.1-27.8-35.6-45.4
	s-13.2-37.3-13.2-58.1c0-18.5,3.8-36.2,10.5-52.2c10.2-24.1,27.2-44.6,48.6-59c21.4-14.5,47.2-22.9,75-22.9c2.4,0,4.8,0.1,7.1,0.2
	l4.6-19.2c-3.9-0.3-7.7-0.4-11.7-0.4c-21.2,0-41.4,4.3-59.8,12.1c-27.6,11.7-51,31.1-67.6,55.6C95.7,215.7,86,245.2,86,277
	c0,23.8,5.4,46.4,15.1,66.6c9,18.7,21.7,35.3,37.2,48.9v66c0,2.7,0.6,5.4,1.6,7.8c1.5,3.6,4,6.6,7.2,8.8c3.2,2.2,7.1,3.4,11.1,3.4
	h123.4c2.7,0,5.4-0.6,7.8-1.6c3.6-1.5,6.6-4,8.8-7.2c2.1-3.2,3.4-7.1,3.4-11.1v-12.1c0-0.4,0.1-0.7,0.2-1c0.2-0.5,0.5-0.9,1-1.2
	c0.4-0.3,0.9-0.4,1.5-0.4h61c3,0,6-0.6,8.6-1.7c4-1.7,7.3-4.5,9.7-8c2.4-3.5,3.8-7.8,3.8-12.3v-37.2c0-0.5,0.1-1,0.4-1.4
	s0.6-0.8,1.1-1l22.7-11l0,0c3.9-1.9,7-4.8,9.2-8.3c2.1-3.5,3.3-7.5,3.3-11.6C424,348,423.3,344.8,421.9,341.8z M394.4,108h-65.9
	l36.7-72.3h-76.7l-27,113.4h31.4l-35.6,114.5L394.4,108z"/>
</svg>
