<?xml version="1.0" encoding="utf-8"?>
<!-- Generator: Adobe Illustrator 27.9.3, SVG Export Plug-In . SVG Version: 9.03 Build 53313)  -->
<svg version="1.1" id="_x32_" xmlns="http://www.w3.org/2000/svg" xmlns:xlink="http://www.w3.org/1999/xlink" x="0px" y="0px"
	 viewBox="0 0 512 512" style="enable-background:new 0 0 512 512;" xml:space="preserve">
<style type="text/css">
	.st0{fill:#828282;}
</style>
<path class="st0" d="M441.7,172.5c-4.7-11.1-12.5-20.5-22.4-27.2s-21.8-10.6-34.6-10.6h-52.3v-14.1c0-7.5-1.5-14.7-4.3-21.3
	c-4.2-9.8-11.1-18.2-19.8-24.1c-8.7-5.9-19.3-9.4-30.6-9.3h-43.5c-7.5,0-14.7,1.5-21.3,4.3c-9.8,4.2-18.2,11.1-24.1,19.8
	c-5.9,8.7-9.3,19.3-9.3,30.6v14.1h-52.3c-8.5,0-16.7,1.7-24.1,4.9c-11,4.8-20.4,12.6-27.1,22.4c-6.7,9.9-10.6,21.8-10.6,34.6v185.6
	c0,8.5,1.7,16.7,4.9,24.1c4.7,11.1,12.5,20.5,22.4,27.2s21.8,10.6,34.6,10.6h257.5c8.5,0,16.7-1.7,24.1-4.9
	c11.1-4.7,20.5-12.5,27.2-22.4c6.7-9.8,10.6-21.8,10.6-34.6V196.6C446.5,188.1,444.8,179.9,441.7,172.5z M207.4,120.7
	c0-3.7,0.8-7.2,2.1-10.4c2-4.8,5.4-8.9,9.7-11.8s9.4-4.6,15-4.6h43.5c3.7,0,7.2,0.8,10.4,2.1c4.8,2,8.9,5.4,11.8,9.7
	c2.9,4.3,4.6,9.4,4.6,15v14.1h-97.2L207.4,120.7L207.4,120.7z M418.7,382.2c0,4.7-1,9.2-2.7,13.2c-2.6,6.1-6.9,11.3-12.3,15
	s-11.9,5.8-19,5.8H127.3c-4.7,0-9.2-1-13.2-2.7c-6.1-2.6-11.3-6.9-15-12.3s-5.8-11.9-5.8-19V240.6h325.4V382.2L418.7,382.2z
	 M418.7,217.9H93.3v-21.3c0-4.7,1-9.2,2.7-13.2c2.6-6.1,6.9-11.3,12.3-15s11.9-5.8,19-5.8h257.5c4.7,0,9.2,1,13.2,2.7
	c6.1,2.6,11.3,6.9,15,12.3c3.7,5.4,5.8,11.9,5.8,19L418.7,217.9L418.7,217.9z M235.9,390.6h43.2v-40.4h40.4V307h-40.4v-40.4h-43.2
	V307h-40.4v43.2h40.4V390.6z"/>
</svg>
