<?xml version="1.0" encoding="utf-8"?>
<!-- Generator: Adobe Illustrator 27.9.3, SVG Export Plug-In . SVG Version: 9.03 Build 53313)  -->
<svg version="1.1" id="_x32_" xmlns="http://www.w3.org/2000/svg" xmlns:xlink="http://www.w3.org/1999/xlink" x="0px" y="0px"
	 viewBox="0 0 512 512" style="enable-background:new 0 0 512 512;" xml:space="preserve">
<style type="text/css">
	.st0{fill:#828282;}
</style>
<path class="st0" d="M453.5,295.5l-37.2-79c0.1-2.4,0.2-4.7,0.2-7.1c0-99.2-80.5-179.7-179.7-179.7C137.5,29.8,57,110.2,57,209.5
	c0,55.8,25.5,105.7,65.4,138.7v63.5c0,6.2,3.7,11.8,9.4,14.2L280.6,489c4.8,2,10.2,1.5,14.5-1.3c4.3-2.9,6.9-7.7,6.9-12.9V421
	c0-8.5,6.9-15.4,15.4-15.4h76.2c8.5,0,15.4-6.9,15.4-15.4v-46.4c0-5.9,3.4-11.3,8.7-13.9l28.4-13.8
	C453.9,312.3,457.1,303.2,453.5,295.5z M236.7,331.7c-67.5,0-122.2-54.7-122.2-122.2S169.2,87.3,236.7,87.3S359,142,359,209.5
	S304.2,331.7,236.7,331.7z M284.6,196.9h-35.3v-66.3c0-6.9-5.6-12.5-12.5-12.5s-12.5,5.6-12.5,12.5v78.9c0,6.9,5.6,12.5,12.5,12.5
	h47.9c6.9,0,12.5-5.6,12.5-12.5C297.2,202.5,291.6,196.9,284.6,196.9z"/>
</svg>
