<?xml version="1.0" encoding="utf-8"?>
<!-- Generator: Adobe Illustrator 27.9.3, SVG Export Plug-In . SVG Version: 9.03 Build 53313)  -->
<svg version="1.1" id="_x32_" xmlns="http://www.w3.org/2000/svg" xmlns:xlink="http://www.w3.org/1999/xlink" x="0px" y="0px"
	 viewBox="0 0 512 512" style="enable-background:new 0 0 512 512;" xml:space="preserve">
<style type="text/css">
	.st0{fill:#828282;}
</style>
<g>
	<path class="st0" d="M366.4,134.4c-12.3-2.6-24.1-3.5-35.1-2.9c-6-0.2-11.4-0.7-16.1-1.4c-6.1-0.8-11-2-15.1-3.3
		c-3.5-1.1-6.4-2.4-8.6-3.6c-2-1.1-3.5-2.1-4.8-3.2c-1.1-0.9-2-1.8-2.8-2.7c-1.4-1.6-2.5-3.4-3.4-5.6c-0.7-1.7-1.4-3.6-1.9-5.8
		c-0.8-3.3-1.4-7.3-1.7-11.8c-0.3-4.5-0.4-9.5-0.4-14.9c0-4.4,0.1-9,0.1-13.7V41h-54.4v24.6c0,4.3-0.1,8.9-0.1,13.7
		c0,5.2,0.1,10.6,0.4,16.3c0.3,5,0.8,10.1,1.7,15.5c0.8,4.7,1.9,9.4,3.4,14.3c1.4,4.2,3.1,8.5,5.3,12.7c1.9,3.7,4.1,7.3,6.8,10.8
		c4.6,6.1,10.4,11.7,17,16.6c9.5,7,13.6,17.6,13.6,28.8c0,49.6-24.6,81-85.6,81c-37.9,0-64.2,29.5-67.7,33.3
		c-6.3,6.6-11.6,14.2-16,22.4c-3.3,6.2-6.1,12.9-8.4,19.9c-3.6,10.6-6,22.1-7.6,34.7s-2.4,26.2-2.4,41.2V449h52.8v-22.3
		c0-11.5,0.5-21.8,1.5-30.9c0.8-8,2-15.1,3.6-21.3c3.8-14.9,24.2-4.1,35.9,2.7c48.1,28.2,172.4,56.2,240.4-51.7
		C461.4,254.7,428.6,147.3,366.4,134.4z"/>
</g>
</svg>
