<?xml version="1.0" encoding="utf-8"?>
<!-- Generator: Adobe Illustrator 27.9.3, SVG Export Plug-In . SVG Version: 9.03 Build 53313)  -->
<svg version="1.1" id="_x32_" xmlns="http://www.w3.org/2000/svg" xmlns:xlink="http://www.w3.org/1999/xlink" x="0px" y="0px"
	 viewBox="0 0 512 512" style="enable-background:new 0 0 512 512;" xml:space="preserve">
<style type="text/css">
	.st0{fill:#828282;}
</style>
<path class="st0" d="M161.4,118.1c24.3,0,44.1-19.8,44.1-44.1s-19.8-44-44.1-44s-44.1,19.8-44.1,44.1S137.1,118.1,161.4,118.1z
	 M385.8,102.3l-100.7-7.6c-54-0.4-103.7,25.3-116.2,62.3l0,0l-44.4,134.7c-2.8,9,2.2,18.7,11.2,21.5s18.7-2.2,21.5-11.2l53.7-112.1
	c4.2-5,8-3.1,9.3-1.9c8.1,7.4,24.5,34.2,27.6,48.2c2.4,11-3,27-9.4,39.1l-39.7,67.3c-3.4,5.6-6.2,11.6-5.9,17l7.3,116.3
	c0,11.1,9,20.1,20.1,20.1s20.1-9,20.1-20.1l6.9-106.5l50.6-68.5c0.4-0.6,2.6-2,1.5,1.6c0,0.1-9.1,38-9.1,38c-1.5,5-1.5,8.5-1.4,12.6
	l8.6,116.2c0.1,11.1,9.2,20,20.3,19.9c11.1-0.1,20-9.2,19.9-20.3l5.8-110.3l25.4-71.4c14.7-38.7-24.7-120.6-47-141.4h41.7l2.4,70.8
	c-0.6,8.5,5.7,15.9,14.3,16.5c8.5,0.6,15.9-5.7,16.5-14.3c0,0,8.5-93.4,8.6-93.8C406.1,113.2,397.4,103.2,385.8,102.3z"/>
</svg>
